<svg width="42" height="42" viewBox="0 0 42 42" fill="none" xmlns="http://www.w3.org/2000/svg">
<circle cx="21" cy="21" r="21" fill="black"/>
<g clip-path="url(#clip0_2311_1045)">
<path d="M27.825 17.4192C27.7166 17.5035 25.7898 18.5753 25.7898 20.996C25.7898 23.7902 28.2346 24.7777 28.3069 24.8018C28.2949 24.8741 27.9214 26.1507 27.0183 27.4755C26.2235 28.6316 25.3682 29.7998 24.092 29.7998C22.8157 29.7998 22.478 29.0412 21.009 29.0412C19.54 29.0412 19.0582 29.8239 17.89 29.8239C16.7218 29.8239 15.903 28.74 14.9633 27.4273C13.8791 25.8732 13 23.4766 13 21.1884C13 17.5393 15.3725 15.5884 17.7209 15.5884C18.9614 15.5884 19.9971 16.4072 20.7798 16.4072C21.5143 16.4072 22.6704 15.5402 24.0916 15.5402C24.6333 15.5402 26.5605 15.5884 27.825 17.4188V17.4192ZM20.8761 15.3354C20.7798 15.3354 20.6834 15.3234 20.6232 15.3113C20.6111 15.2632 20.587 15.1186 20.587 14.974C20.587 13.9986 21.0809 13.0352 21.6227 12.4208C22.2973 11.6264 23.4414 11.0361 24.3807 11C24.4048 11.1084 24.4168 11.2409 24.4168 11.3735C24.4168 12.3368 24.0072 13.3002 23.4294 13.999C22.8033 14.7696 21.7315 15.3358 20.8761 15.3358V15.3354Z" fill="white"/>
</g>
<defs>
<clipPath id="clip0_2311_1045">
<rect width="16" height="18.8239" fill="white" transform="translate(13 11)"/>
</clipPath>
</defs>
</svg>
