<svg width="42" height="42" viewBox="0 0 42 42" fill="none" xmlns="http://www.w3.org/2000/svg">
<circle cx="21" cy="21" r="21" fill="#FF2233"/>
<g clip-path="url(#clip0_2311_1069)">
<path d="M24.6272 20.4973C24.3044 20.6472 23.774 20.8086 23.0361 20.8086H19.0815V15.8394H22.8171C23.4512 15.8394 24.0738 15.9316 24.4312 16.0815C24.927 16.289 25.2844 16.5888 25.5035 16.9923C25.6995 17.3382 25.7917 17.7648 25.7917 18.2836C25.7917 19.402 25.4112 20.1284 24.6157 20.4973H24.6272ZM28.628 14.2483C27.9938 13.4758 27.1868 12.8647 26.1952 12.4612C25.4343 12.1499 24.2698 12 23.382 12H15V29.2944H19.3236V24.6134H23.382C24.4427 24.6134 25.7225 24.3713 26.6564 23.9331C27.9016 23.3451 28.824 22.3305 29.3889 21.1199C29.7809 20.2552 30 19.2867 30 18.2721C30 16.7502 29.5158 15.3551 28.6395 14.2367L28.628 14.2483Z" fill="white"/>
</g>
<defs>
<clipPath id="clip0_2311_1069">
<rect width="15" height="18" fill="white" transform="translate(15 12)"/>
</clipPath>
</defs>
</svg>
