<svg width="300" height="47" viewBox="0 0 300 47" fill="none" xmlns="http://www.w3.org/2000/svg">
<rect y="0.000518799" width="300" height="47" rx="6" fill="#FF2233"/>
<g clip-path="url(#clip0_2307_524)">
<path d="M151.26 25.8816C150.63 26.5616 149.76 26.9616 148.68 26.9616C147.6 26.9616 146.73 26.5616 146.1 25.8816C145.52 25.2316 145.18 24.4016 145.18 23.3816C145.18 22.3616 145.5 21.5216 146.08 20.8816C146.71 20.2016 147.59 19.8016 148.68 19.8016C149.77 19.8016 150.63 20.2016 151.26 20.8816C151.84 21.5316 152.18 22.3616 152.18 23.3816C152.18 24.4016 151.85 25.2416 151.26 25.8816ZM153.36 18.6116C152.16 17.4616 150.52 16.7816 148.68 16.7816C146.84 16.7816 145.2 17.4616 144 18.6116C142.76 19.8016 142.07 21.4916 142.07 23.3816C142.07 25.2716 142.76 26.9616 144 28.1516C145.2 29.3016 146.84 29.9816 148.68 29.9816C150.52 29.9816 152.16 29.3016 153.36 28.1516C154.6 26.9616 155.29 25.2716 155.29 23.3816C155.29 21.4916 154.6 19.8016 153.36 18.6116Z" fill="white"/>
<path fill-rule="evenodd" clip-rule="evenodd" d="M139.44 25.4516L139.38 25.5316C138.96 26.0516 138.49 26.4216 137.94 26.6516C137.51 26.8516 136.97 26.9716 136.4 26.9716C135.29 26.9716 134.31 26.6016 133.66 25.9016C133.06 25.2716 132.73 24.3716 132.73 23.3616C132.73 22.1916 133.2 21.2216 133.98 20.5716C134.61 20.0516 135.35 19.7516 136.4 19.7516C136.9 19.7516 137.39 19.8516 137.82 20.0216C138.33 20.2216 138.77 20.5416 139.21 20.9816L139.27 21.0416L141.54 19.1416L141.48 19.0616C140.84 18.2616 140.07 17.6816 139.35 17.3516C138.51 16.9716 137.48 16.7616 136.33 16.7616C134.54 16.7616 132.96 17.3516 131.77 18.3816C130.41 19.5816 129.61 21.3316 129.61 23.3616C129.61 25.0616 130.18 26.5816 131.18 27.7316C132.4 29.1116 134.21 29.9616 136.33 29.9616C137.68 29.9616 138.76 29.7016 139.65 29.1916C140.45 28.7416 141.1 28.0916 141.67 27.2616L141.72 27.1816L139.42 25.4516H139.44Z" fill="white"/>
<path fill-rule="evenodd" clip-rule="evenodd" d="M126.1 17.0916L123.43 22.3516L120.78 17.0916H117.2L121.87 25.6016V29.6316H124.98V25.6016L129.65 17.0916H126.1Z" fill="white"/>
<path d="M112.55 19.9716L114.2 24.3816H110.92L112.54 19.9716H112.55ZM114.6 17.0916H110.47L105.8 29.6216H108.98L109.87 27.2016H115.25L116.16 29.6216H119.32L114.6 17.0916Z" fill="white"/>
<path d="M102.64 23.2516C102.41 23.3616 102.03 23.4816 101.49 23.4816H98.6399V19.8816H101.33C101.79 19.8816 102.23 19.9516 102.49 20.0616C102.85 20.2116 103.1 20.4316 103.26 20.7216C103.4 20.9716 103.47 21.2816 103.47 21.6516C103.47 22.4616 103.19 22.9916 102.63 23.2616L102.64 23.2516ZM105.51 18.7216C105.05 18.1616 104.47 17.7216 103.76 17.4216C103.21 17.1916 102.37 17.0916 101.73 17.0916H95.7V29.6216H98.81V26.2316H101.73C102.49 26.2316 103.42 26.0616 104.08 25.7416C104.98 25.3216 105.64 24.5816 106.05 23.7016C106.33 23.0716 106.49 22.3716 106.49 21.6416C106.49 20.5416 106.14 19.5216 105.51 18.7216Z" fill="white"/>
<path d="M195.31 18.1216C194.79 18.1216 194.32 18.2316 193.89 18.4516C193.47 18.6716 193.15 18.9816 192.91 19.3816C192.68 19.7816 192.56 20.2316 192.57 20.7316C192.57 21.2416 192.68 21.7016 192.91 22.1016C193.15 22.5016 193.48 22.8116 193.89 23.0316C194.31 23.2516 194.78 23.3616 195.31 23.3616C195.84 23.3616 196.29 23.2516 196.71 23.0316C197.13 22.8116 197.45 22.5016 197.69 22.1016C197.93 21.7016 198.05 21.2416 198.05 20.7316C198.05 20.2216 197.93 19.7716 197.69 19.3816C197.45 18.9916 197.12 18.6716 196.71 18.4516C196.3 18.2316 195.83 18.1216 195.31 18.1216ZM195.31 16.9016C196.08 16.9016 196.78 17.0616 197.4 17.3916C198.02 17.7216 198.51 18.1716 198.87 18.7516C199.23 19.3316 199.41 19.9916 199.41 20.7316C199.41 21.4716 199.23 22.1416 198.87 22.7316C198.51 23.3116 198.02 23.7616 197.4 24.0916C196.78 24.4216 196.08 24.5816 195.31 24.5816C194.54 24.5816 193.84 24.4216 193.22 24.0916C192.6 23.7616 192.11 23.3116 191.75 22.7316C191.39 22.1416 191.21 21.4816 191.21 20.7316C191.21 19.9816 191.39 19.3316 191.75 18.7516C192.11 18.1716 192.6 17.7216 193.22 17.3916C193.84 17.0616 194.54 16.9016 195.31 16.9016ZM195.03 30.3216H193.66V26.0816H195.03V30.3216ZM204.24 31.0916H193.66V29.9316H204.24V31.0916ZM203.75 27.2416H202.38V15.8116H203.75V27.2416ZM187.81 19.1416C187.81 20.0016 187.81 20.7616 187.78 21.4316C187.75 22.1016 187.71 22.8716 187.62 23.7616C187.53 24.6416 187.4 25.6016 187.22 26.6316L185.81 26.4916C186 25.5216 186.14 24.6016 186.23 23.7316C186.32 22.8616 186.38 22.0916 186.41 21.4116C186.43 20.7216 186.45 19.9616 186.45 19.1216V17.4716H187.8V19.1416H187.81ZM189.73 29.1216H175.49V27.9816H189.73V29.1216ZM187.2 18.6116H177.04V17.4716H187.2V18.6116ZM173 25.3816H161.93V24.2416H173V25.3816ZM172.63 21.6916H163.3V24.8516H161.93V20.5616H171.28V18.1016H161.89V16.9616H172.63V21.6916ZM167.92 28.8416H166.57V24.9716H167.92V28.8416ZM174.44 29.4916H160.13V28.3316H174.44V29.4916Z" fill="white"/>
</g>
<defs>
<clipPath id="clip0_2307_524">
<rect width="110" height="17" fill="white" transform="translate(95 15.0005)"/>
</clipPath>
</defs>
</svg>
