<svg width="28" height="38" viewBox="0 0 28 38" fill="none" xmlns="http://www.w3.org/2000/svg">
<path d="M24.7153 33.9573C24.7153 35.8804 19.9234 37.4441 14.0092 37.4441C8.0949 37.4441 3.30298 35.8804 3.30298 33.9573C3.30298 32.0343 8.0949 30.4706 14.0092 30.4706C19.9234 30.4706 24.7153 32.0343 24.7153 33.9573Z" fill="#251814"/>
<path d="M13.7062 0.559016C6.0643 0.72295 -0.203035 7.31816 0.00503572 14.96C0.105918 18.5224 1.53719 21.8705 4.05926 24.4178L13.0378 33.3963C13.5675 33.926 14.4313 33.926 14.9609 33.3963L23.826 24.5313C26.5561 21.7759 28 18.327 28 14.5628C28.0126 6.73808 21.5687 0.395082 13.7062 0.559016Z" fill="#FF5F00"/>
<path d="M11.4996 13.9323C11.4996 15.3762 10.3269 16.549 8.883 16.549C7.43912 16.549 6.26636 15.3762 6.26636 13.9323C6.26636 12.4884 7.43912 11.3157 8.883 11.3157C10.3269 11.3157 11.4996 12.4884 11.4996 13.9323Z" fill="white"/>
<path d="M17.0729 16.2465C16.7261 16.2465 16.3856 16.0763 16.1775 15.7736C15.8938 15.3575 15.9821 14.8216 16.2784 14.4117C16.8648 13.592 17.5899 13.0372 18.3654 12.4823C19.2545 11.8392 20.2318 11.3348 21.2658 10.9691C21.518 10.8808 21.8018 11.0195 21.8774 11.2781L22.0918 11.9905C22.1675 12.2301 22.035 12.4886 21.7955 12.5706C20.919 12.8796 20.0994 13.3083 19.3427 13.8506C19.2292 13.9325 19.1158 14.0208 19.0023 14.1091C19.8913 14.0649 20.6605 14.2226 21.2469 14.4117C21.5117 14.5 21.6504 14.79 21.5369 15.0485L21.2469 15.7358C21.1523 15.9628 20.9064 16.0763 20.6731 16.0069C20.1876 15.8556 19.5445 15.7421 18.7942 15.8241C18.3465 15.8745 17.9115 15.988 17.4953 16.1646C17.3566 16.2213 17.2116 16.2528 17.0666 16.2528" fill="white"/>
</svg>
